<svg width="117" height="20" viewBox="0 0 117 20" fill="none" xmlns="http://www.w3.org/2000/svg">
<path d="M10 10L20 15.7735V4.2265L10 10ZM107 11C107.552 11 108 10.5523 108 10C108 9.44772 107.552 9 107 9V11ZM17.275 11H22.125V9H17.275V11ZM26.975 11H31.825V9H26.975V11ZM36.675 11H41.525V9H36.675V11ZM46.375 11H51.225V9H46.375V11ZM56.075 11H60.925V9H56.075V11ZM65.775 11H70.625V9H65.775V11ZM75.475 11H80.325V9H75.475V11ZM85.175 11H90.025V9H85.175V11ZM94.875 11H99.725V9H94.875V11ZM104.575 11H107V9H104.575V11Z" fill="#EB8494"/>
</svg>
