<svg width="67" height="13" viewBox="0 0 67 13" fill="none" xmlns="http://www.w3.org/2000/svg">
<path d="M0.0361705 6.48633C0.0361702 9.63282 2.58691 12.1836 5.7334 12.1836C8.87989 12.1836 11.4306 9.63282 11.4306 6.48633C11.4306 3.33984 8.87989 0.7891 5.7334 0.7891C2.58691 0.7891 0.0361708 3.33984 0.0361705 6.48633ZM55.5841 6.48633C55.5841 9.63282 58.1349 12.1836 61.2814 12.1836C64.4279 12.1836 66.9786 9.63283 66.9786 6.48633C66.9786 3.33984 64.4279 0.789105 61.2814 0.789105C58.1349 0.789105 55.5841 3.33984 55.5841 6.48633ZM5.7334 7.55456L10.3624 7.55456L10.3624 5.4181L5.7334 5.4181L5.7334 7.55456ZM19.6204 7.55456L28.8784 7.55456L28.8784 5.4181L19.6204 5.4181L19.6204 7.55456ZM38.1364 7.55456L47.3944 7.55456L47.3944 5.4181L38.1364 5.4181L38.1364 7.55456ZM56.6524 7.55456L61.2814 7.55456L61.2814 5.4181L56.6524 5.4181L56.6524 7.55456Z" fill="#FFB6C1"/>
</svg>
