<svg width="319" height="12" viewBox="0 0 319 12" fill="none" xmlns="http://www.w3.org/2000/svg">
<path d="M0.488319 6.27734C0.488319 9.42384 3.03905 11.9746 6.18555 11.9746C9.33204 11.9746 11.8828 9.42384 11.8828 6.27734C11.8828 3.13085 9.33204 0.580116 6.18555 0.580116C3.03905 0.580116 0.488319 3.13085 0.488319 6.27734ZM307.07 6.27734C307.07 9.42384 309.621 11.9746 312.768 11.9746C315.914 11.9746 318.465 9.42384 318.465 6.27734C318.465 3.13085 315.914 0.580116 312.768 0.580116C309.621 0.580116 307.07 3.13085 307.07 6.27734ZM6.18555 7.34557H10.4436V5.20911H6.18555V7.34557ZM18.9598 7.34557H27.476V5.20911H18.9598V7.34557ZM35.9921 7.34557H44.5083V5.20911H35.9921V7.34557ZM53.0245 7.34557H61.5407V5.20911H53.0245V7.34557ZM70.0568 7.34557H78.573V5.20911H70.0568V7.34557ZM87.0892 7.34557H95.6053V5.20911H87.0892V7.34557ZM104.121 7.34557H112.638V5.20911H104.121V7.34557ZM121.154 7.34557H129.67V5.20911H121.154V7.34557ZM138.186 7.34557H146.702V5.20911H138.186V7.34557ZM155.219 7.34557H163.735V5.20911H155.219V7.34557ZM172.251 7.34557H180.767V5.20911H172.251V7.34557ZM189.283 7.34557H197.799V5.20911H189.283V7.34557ZM206.316 7.34557H214.832V5.20911H206.316V7.34557ZM223.348 7.34557H231.864V5.20911H223.348V7.34557ZM240.38 7.34557H248.896V5.20911H240.38V7.34557ZM257.413 7.34557H265.929V5.20911H257.413V7.34557ZM274.445 7.34557H282.961V5.20911H274.445V7.34557ZM291.477 7.34557H299.993V5.20911H291.477V7.34557ZM308.51 7.34557H312.768V5.20911H308.51V7.34557Z" fill="#EB8494"/>
</svg>
